TITLE ""
FILE "P1Q_t_0820-0828.mp3" MP3
  TRACK 01 AUDIO
    TITLE "P1Q_t_0820-0828_01"
    INDEX 01 00:00:00
  TRACK 02 AUDIO
    TITLE "P1Q_t_0820-0828_02"
    INDEX 01 00:00:10
  TRACK 03 AUDIO
    TITLE "P1Q_t_0820-0828_03"
    INDEX 01 00:01:08
  TRACK 04 AUDIO
    TITLE "P1Q_t_0820-0828_04"
    INDEX 01 00:01:33
  TRACK 05 AUDIO
    TITLE "P1Q_t_0820-0828_05"
    INDEX 01 00:06:64
  TRACK 06 AUDIO
    TITLE "P1Q_t_0820-0828_06"
    INDEX 01 00:07:08
  TRACK 07 AUDIO
    TITLE "P1Q_t_0820-0828_07"
    INDEX 01 00:10:38
  TRACK 08 AUDIO
    TITLE "P1Q_t_0820-0828_08"
    INDEX 01 00:11:08
  TRACK 09 AUDIO
    TITLE "P1Q_t_0820-0828_09"
    INDEX 01 00:12:13
  TRACK 10 AUDIO
    TITLE "P1Q_t_0820-0828_10"
    INDEX 01 00:12:35
  TRACK 11 AUDIO
    TITLE "P1Q_t_0820-0828_11"
    INDEX 01 00:14:07
  TRACK 12 AUDIO
    TITLE "P1Q_t_0820-0828_12"
    INDEX 01 00:14:28
  TRACK 13 AUDIO
    TITLE "P1Q_t_0820-0828_13"
    INDEX 01 00:19:00
  TRACK 14 AUDIO
    TITLE "P1Q_t_0820-0828_14"
    INDEX 01 00:19:45
  TRACK 15 AUDIO
    TITLE "P1Q_t_0820-0828_15"
    INDEX 01 00:20:66
  TRACK 16 AUDIO
    TITLE "P1Q_t_0820-0828_16"
    INDEX 01 00:21:10
  TRACK 17 AUDIO
    TITLE "P1Q_t_0820-0828_17"
    INDEX 01 00:24:19
  TRACK 18 AUDIO
    TITLE "P1Q_t_0820-0828_18"
    INDEX 01 00:24:38
  TRACK 19 AUDIO
    TITLE "P1Q_t_0820-0828_19"
    INDEX 01 00:29:49
  TRACK 20 AUDIO
    TITLE "P1Q_t_0820-0828_20"
    INDEX 01 00:30:21
  TRACK 21 AUDIO
    TITLE "P1Q_t_0820-0828_21"
    INDEX 01 00:31:36
  TRACK 22 AUDIO
    TITLE "P1Q_t_0820-0828_22"
    INDEX 01 00:31:58
  TRACK 23 AUDIO
    TITLE "P1Q_t_0820-0828_23"
    INDEX 01 00:34:72
  TRACK 24 AUDIO
    TITLE "P1Q_t_0820-0828_24"
    INDEX 01 00:35:16
  TRACK 25 AUDIO
    TITLE "P1Q_t_0820-0828_25"
    INDEX 01 00:39:53
  TRACK 26 AUDIO
    TITLE "P1Q_t_0820-0828_26"
    INDEX 01 00:40:25
  TRACK 27 AUDIO
    TITLE "P1Q_t_0820-0828_27"
    INDEX 01 00:41:39
  TRACK 28 AUDIO
    TITLE "P1Q_t_0820-0828_28"
    INDEX 01 00:41:62
  TRACK 29 AUDIO
    TITLE "P1Q_t_0820-0828_29"
    INDEX 01 00:45:50
  TRACK 30 AUDIO
    TITLE "P1Q_t_0820-0828_30"
    INDEX 01 00:45:68
  TRACK 31 AUDIO
    TITLE "P1Q_t_0820-0828_31"
    INDEX 01 00:50:04
  TRACK 32 AUDIO
    TITLE "P1Q_t_0820-0828_32"
    INDEX 01 00:50:51
  TRACK 33 AUDIO
    TITLE "P1Q_t_0820-0828_33"
    INDEX 01 00:51:61
  TRACK 34 AUDIO
    TITLE "P1Q_t_0820-0828_34"
    INDEX 01 00:52:07
  TRACK 35 AUDIO
    TITLE "P1Q_t_0820-0828_35"
    INDEX 01 00:55:25
  TRACK 36 AUDIO
    TITLE "P1Q_t_0820-0828_36"
    INDEX 01 00:55:45
  TRACK 37 AUDIO
    TITLE "P1Q_t_0820-0828_37"
    INDEX 01 01:00:05
  TRACK 38 AUDIO
    TITLE "P1Q_t_0820-0828_38"
    INDEX 01 01:00:52
  TRACK 39 AUDIO
    TITLE "P1Q_t_0820-0828_39"
    INDEX 01 01:01:71
  TRACK 40 AUDIO
    TITLE "P1Q_t_0820-0828_40"
    INDEX 01 01:02:19
  TRACK 41 AUDIO
    TITLE "P1Q_t_0820-0828_41"
    INDEX 01 01:04:61
  TRACK 42 AUDIO
    TITLE "P1Q_t_0820-0828_42"
    INDEX 01 01:05:04
  TRACK 43 AUDIO
    TITLE "P1Q_t_0820-0828_43"
    INDEX 01 01:09:35
  TRACK 44 AUDIO
    TITLE "P1Q_t_0820-0828_44"
    INDEX 01 01:10:13
  TRACK 45 AUDIO
    TITLE "P1Q_t_0820-0828_45"
    INDEX 01 01:11:18
  TRACK 46 AUDIO
    TITLE "P1Q_t_0820-0828_46"
    INDEX 01 01:11:63
  TRACK 47 AUDIO
    TITLE "P1Q_t_0820-0828_47"
    INDEX 01 01:12:67
  TRACK 48 AUDIO
    TITLE "P1Q_t_0820-0828_48"
    INDEX 01 01:13:13
  TRACK 49 AUDIO
    TITLE "P1Q_t_0820-0828_49"
    INDEX 01 01:14:28
  TRACK 50 AUDIO
    TITLE "P1Q_t_0820-0828_50"
    INDEX 01 01:14:48
  TRACK 51 AUDIO
    TITLE "P1Q_t_0820-0828_51"
    INDEX 01 01:18:54
  TRACK 52 AUDIO
    TITLE "P1Q_t_0820-0828_52"
    INDEX 01 01:19:27
  TRACK 53 AUDIO
    TITLE "P1Q_t_0820-0828_53"
    INDEX 01 01:20:35
  TRACK 54 AUDIO
    TITLE "P1Q_t_0820-0828_54"
    INDEX 01 01:20:56
  TRACK 55 AUDIO
    TITLE "P1Q_t_0820-0828_55"
    INDEX 01 01:22:08
  TRACK 56 AUDIO
    TITLE "P1Q_t_0820-0828_56"
    INDEX 01 01:22:30
  TRACK 57 AUDIO
    TITLE "P1Q_t_0820-0828_57"
    INDEX 01 01:26:10
